<svg width="212" height="42" viewBox="0 0 212 42" fill="none" xmlns="http://www.w3.org/2000/svg">
<path d="M20.4976 42C15.1933 42 10.1062 39.8929 6.35549 36.1421C2.60476 32.3914 0.497623 27.3043 0.497623 22C0.497622 16.6957 2.60476 11.6086 6.35549 7.85786C10.1062 4.10714 15.1933 2 20.4976 2L20.4976 22L20.4976 42Z" fill="#F2AD5C"/>
<path d="M23.5607 34.8892C23.5607 28.6663 28.6054 23.6216 34.8283 23.6216H41.9391V30.7324C41.9391 36.9553 36.8944 42 30.6715 42H23.5607V34.8892Z" fill="#43806C"/>
<path d="M32.7499 2C37.8249 2 41.9391 6.11414 41.9391 11.1892V11.1892C41.9391 16.2642 37.8249 20.3784 32.7499 20.3784V20.3784C27.6748 20.3784 23.5607 16.2642 23.5607 11.1892L23.5607 2L32.7499 2Z" fill="#43806C"/>
<path d="M54.716 20.864C54.716 18.7733 55.228 16.8427 56.252 15.072C57.2973 13.3013 58.7053 11.904 60.476 10.88C62.2467 9.83467 64.1773 9.312 66.268 9.312C68.4013 9.312 70.3747 9.86667 72.188 10.976C74.0013 12.064 75.3987 13.5147 76.38 15.328L72.7 17.28C72.06 16.1493 71.164 15.2427 70.012 14.56C68.86 13.856 67.612 13.504 66.268 13.504C64.9453 13.504 63.708 13.8347 62.556 14.496C61.4253 15.1573 60.5293 16.0533 59.868 17.184C59.2067 18.3147 58.876 19.5413 58.876 20.864C58.876 22.1867 59.2067 23.4133 59.868 24.544C60.5293 25.6747 61.4253 26.5707 62.556 27.232C63.708 27.8933 64.9453 28.224 66.268 28.224C67.6547 28.224 68.9133 27.872 70.044 27.168C71.196 26.464 72.092 25.5253 72.732 24.352L76.412 26.368C75.4307 28.2027 74.0333 29.6747 72.22 30.784C70.4067 31.872 68.4227 32.416 66.268 32.416C64.1773 32.416 62.2467 31.904 60.476 30.88C58.7053 29.8347 57.2973 28.4267 56.252 26.656C55.228 24.8853 54.716 22.9547 54.716 20.864ZM83.4223 27.488C83.4223 27.8293 83.5076 28.0747 83.6783 28.224C83.8489 28.3733 84.1156 28.448 84.4783 28.448C84.7556 28.448 85.0863 28.416 85.4703 28.352V32C84.6809 32.128 83.9449 32.192 83.2623 32.192C82.0249 32.192 81.0756 31.872 80.4143 31.232C79.7743 30.5707 79.4543 29.408 79.4543 27.744V9.6H83.4223V27.488ZM95.2243 15.584C96.7603 15.584 98.1363 15.968 99.3523 16.736C100.59 17.4827 101.55 18.496 102.232 19.776C102.915 21.056 103.256 22.4747 103.256 24.032C103.256 24.544 103.214 25.0133 103.128 25.44H90.7763C91.0963 26.5707 91.6616 27.456 92.4723 28.096C93.2829 28.7147 94.3176 29.024 95.5763 29.024C96.3443 29.024 97.0803 28.8533 97.7843 28.512C98.5096 28.1707 99.0536 27.7333 99.4163 27.2L102.456 28.992C101.71 30.1013 100.739 30.9547 99.5443 31.552C98.3709 32.128 97.0163 32.416 95.4803 32.416C93.7736 32.416 92.2589 32.0533 90.9363 31.328C89.6136 30.6027 88.5896 29.6 87.8643 28.32C87.1603 27.04 86.8083 25.6 86.8083 24C86.8083 22.4213 87.1603 20.992 87.8643 19.712C88.5896 18.432 89.5923 17.4293 90.8723 16.704C92.1523 15.9573 93.6029 15.584 95.2243 15.584ZM99.5443 22.336C99.3736 21.312 98.8936 20.512 98.1043 19.936C97.3363 19.3387 96.3656 19.04 95.1923 19.04C94.3816 19.04 93.6349 19.1893 92.9523 19.488C92.2909 19.7867 91.7576 20.192 91.3523 20.704C90.9469 21.216 90.7336 21.76 90.7123 22.336H99.5443ZM118.311 16H122.279V32H118.311V30.432C117.564 31.072 116.743 31.5733 115.847 31.936C114.972 32.2773 114.044 32.448 113.063 32.448C111.441 32.448 110.023 32.0853 108.807 31.36C107.591 30.6347 106.652 29.632 105.991 28.352C105.351 27.072 105.031 25.632 105.031 24.032C105.031 22.432 105.351 20.992 105.991 19.712C106.652 18.432 107.591 17.4293 108.807 16.704C110.023 15.9573 111.441 15.584 113.063 15.584C114.044 15.584 114.972 15.7653 115.847 16.128C116.743 16.4693 117.564 16.96 118.311 17.6V16ZM113.575 28.64C114.449 28.64 115.239 28.448 115.943 28.064C116.668 27.6587 117.233 27.104 117.639 26.4C118.065 25.696 118.279 24.896 118.279 24C118.279 22.656 117.82 21.5573 116.903 20.704C116.007 19.8507 114.897 19.424 113.575 19.424C112.231 19.424 111.121 19.8613 110.247 20.736C109.393 21.5893 108.967 22.688 108.967 24.032C108.967 25.376 109.393 26.4853 110.247 27.36C111.121 28.2133 112.231 28.64 113.575 28.64ZM134.489 15.584C135.427 15.584 136.377 15.7867 137.337 16.192C138.318 16.576 139.15 17.28 139.833 18.304C140.537 19.328 140.889 20.704 140.889 22.432V32H136.921V22.432C136.921 21.2373 136.579 20.384 135.897 19.872C135.235 19.3387 134.457 19.072 133.561 19.072C132.665 19.072 131.897 19.392 131.257 20.032C130.638 20.6507 130.329 21.6533 130.329 23.04V32H126.361V16H130.329V17.344C130.905 16.8107 131.545 16.384 132.249 16.064C132.953 15.744 133.699 15.584 134.489 15.584ZM154.128 16H158.096V32H154.128V30.656C153.552 31.1893 152.912 31.616 152.208 31.936C151.504 32.256 150.757 32.416 149.968 32.416C149.029 32.416 148.069 32.224 147.088 31.84C146.128 31.4347 145.296 30.72 144.592 29.696C143.909 28.672 143.568 27.296 143.568 25.568V16H147.536V25.568C147.536 26.7627 147.867 27.6267 148.528 28.16C149.211 28.672 150 28.928 150.896 28.928C151.792 28.928 152.549 28.6187 153.168 28C153.808 27.36 154.128 26.3467 154.128 24.96V16ZM171.388 15.584C173.01 15.584 174.428 15.9467 175.644 16.672C176.882 17.3973 177.82 18.4 178.46 19.68C179.122 20.96 179.452 22.4 179.452 24C179.452 25.6 179.122 27.04 178.46 28.32C177.82 29.6 176.882 30.6133 175.644 31.36C174.428 32.0853 173.01 32.448 171.388 32.448C170.428 32.448 169.5 32.2773 168.604 31.936C167.73 31.5733 166.919 31.072 166.172 30.432V38.4H162.204V16H166.172V17.568C166.898 16.928 167.708 16.4373 168.604 16.096C169.5 15.7547 170.428 15.584 171.388 15.584ZM170.908 28.608C172.231 28.608 173.319 28.1813 174.172 27.328C175.047 26.4533 175.484 25.344 175.484 24C175.484 22.656 175.047 21.5573 174.172 20.704C173.319 19.8293 172.231 19.392 170.908 19.392C170.034 19.392 169.234 19.5947 168.508 20C167.783 20.384 167.207 20.928 166.78 21.632C166.375 22.336 166.172 23.136 166.172 24.032C166.172 25.376 166.62 26.4747 167.516 27.328C168.434 28.1813 169.564 28.608 170.908 28.608ZM202.634 20.768L209.898 32H204.906L199.722 23.968L194.538 32H189.546L196.81 20.768L189.578 9.6H194.57L199.722 17.568L204.874 9.6H209.866L202.634 20.768Z" fill="#212725"/>
</svg>
